<svg id="Layer_1" data-name="Layer 1" xmlns="http://www.w3.org/2000/svg" viewBox="0 0 1024 337"><defs><style>.cls-1{fill:#fff;}.cls-2{fill:#ee4871;}.cls-3{fill:#ced9f2;}.cls-4{fill:#aebfea;}.cls-5{fill:#eff2fb;}</style></defs><path class="cls-1" d="M29.66,45H83.34Q120,45,139.79,64.56t19.81,55.06q0,27.42-9.67,47.12a68.27,68.27,0,0,1-28.34,30.18q-18.66,10.49-44.93,10.48H17ZM75.74,191.27q31.8,0,48-18.43T140,119.39q0-58.27-58.29-58.29H47.4L37.27,191.27Z"/><path class="cls-1" d="M200.84,154.18v.92q0,18.43,9.1,28.57t26.38,10.14A56.46,56.46,0,0,0,273,180.68l5.3,13.82q-6.9,6.69-18.77,10.6A76.45,76.45,0,0,1,235.4,209q-24.42,0-38.82-14.74t-14.4-39.63q0-18.19,6.91-32.37a52.53,52.53,0,0,1,19.36-22q12.44-7.83,29-7.83,21.43,0,33.87,12.78t12.44,37.67a98.77,98.77,0,0,1-.69,11.29Zm12.67-38.13q-9.21,9.11-11.75,26.15h65.43q.71-17.5-7.14-26.38T238.17,107Q222.72,107,213.51,116.05Z"/><path class="cls-2" d="M479,103.27q9.56,12,9.56,36.86V207.4h-41V141.28q0-9.9-3-14.28c-2-2.92-5.3-4.38-9.9-4.38q-8.54,0-13,6t-4.49,17V207.4h-41V141.28q0-9.9-3-14.28t-9.9-4.38q-8.53,0-12.91,6t-4.37,17V207.4H305V94.05h39.85v14.28q11.3-17,34.56-17,24.42,0,32.95,20a42.17,42.17,0,0,1,15.78-14.75,44.56,44.56,0,0,1,21.54-5.29Q469.48,91.29,479,103.27Z"/><path class="cls-2" d="M603,103.61q12.79,12.33,12.79,38.36V207.4H577.29V191.5a26,26,0,0,1-10.82,13q-7.61,4.72-18.2,4.72a46.72,46.72,0,0,1-21.2-4.72,36.76,36.76,0,0,1-14.86-13.13,34.35,34.35,0,0,1-5.41-19q0-12.21,6.33-19.47t20.16-10.48q13.83-3.23,37.32-3.22h6.22v-2.77q0-8.52-3.91-11.86c-2.62-2.23-7.22-3.34-13.83-3.34A63.07,63.07,0,0,0,541,124.35a104.34,104.34,0,0,0-19.24,7.94L511.4,105.34q9.92-6,24.77-10a104.85,104.85,0,0,1,27.3-4Q590.2,91.29,603,103.61ZM571.54,176q5.3-5.87,5.29-15.09V158.1h-3.68q-14.74,0-21,2.65T546,169.62a12.06,12.06,0,0,0,3.34,8.75,11.47,11.47,0,0,0,8.64,3.46A17.5,17.5,0,0,0,571.54,176Z"/><path class="cls-2" d="M745.25,103.38q9.9,12.09,9.9,36.75V207.4h-41V142q0-10.14-3.57-14.74t-10.71-4.61q-9.23,0-14.63,5.87t-5.42,15.78V207.4h-41V94.05h39.85v15.2A39.44,39.44,0,0,1,694.1,95.89a47.18,47.18,0,0,1,21-4.6Q735.34,91.29,745.25,103.38Z"/><path class="cls-2" d="M898.22,45V207.4H857.91V192a33.11,33.11,0,0,1-14.17,12.68,48.59,48.59,0,0,1-46.54-2.88,50.28,50.28,0,0,1-17.86-21.08q-6.45-13.59-6.45-31.11t6.34-30.75A47.52,47.52,0,0,1,797,98.43a48.23,48.23,0,0,1,26.15-7.14A45.45,45.45,0,0,1,843,95.66a35.34,35.34,0,0,1,14.17,11.75V45ZM852.15,171.23q5.75-7.36,5.76-21.2,0-13.59-5.76-20.85t-16.59-7.25q-10.6,0-16.36,7.14t-5.76,20.5q0,13.83,5.87,21.43t16.25,7.6Q846.39,178.6,852.15,171.23Z"/><polyline class="cls-3" points="882.58 295.75 836.39 246.09 854.88 315.08"/><polyline class="cls-4" points="883.26 296.16 862.82 274.59 854.88 315.08"/><polygon class="cls-5" points="1024.5 160.88 800.63 207.37 915.58 331.6 1024.5 160.88"/><polygon class="cls-3" points="1020.35 162.96 836.91 246.6 862.82 274.59 1020.35 162.96"/></svg>